<svg xmlns="http://www.w3.org/2000/svg" viewBox="0 0 24 24" width="24" height="24">
  <!-- Background -->
  <rect width="24" height="24" rx="4" fill="#1976D2"/>
  
  <!-- LED Matrix Display -->
  <rect x="3" y="4" width="18" height="12" rx="2" fill="#0D47A1" stroke="#1565C0" stroke-width="0.5"/>
  
  <!-- LED Pixels forming a simple pattern -->
  <!-- Top row -->
  <circle cx="6" cy="7" r="0.8" fill="#4CAF50"/>
  <circle cx="9" cy="7" r="0.8" fill="#FF9800"/>
  <circle cx="12" cy="7" r="0.8" fill="#F44336"/>
  <circle cx="15" cy="7" r="0.8" fill="#9C27B0"/>
  <circle cx="18" cy="7" r="0.8" fill="#00BCD4"/>
  
  <!-- Middle row -->
  <circle cx="6" cy="10" r="0.8" fill="#FFEB3B"/>
  <circle cx="9" cy="10" r="0.8" fill="#FF5722"/>
  <circle cx="12" cy="10" r="0.8" fill="#607D8B"/>
  <circle cx="15" cy="10" r="0.8" fill="#795548"/>
  <circle cx="18" cy="10" r="0.8" fill="#E91E63"/>
  
  <!-- Bottom row -->
  <circle cx="6" cy="13" r="0.8" fill="#8BC34A"/>
  <circle cx="9" cy="13" r="0.8" fill="#FFC107"/>
  <circle cx="12" cy="13" r="0.8" fill="#3F51B5"/>
  <circle cx="15" cy="13" r="0.8" fill="#009688"/>
  <circle cx="18" cy="13" r="0.8" fill="#CDDC39"/>
  
  <!-- MQTT Signal indicator -->
  <g transform="translate(2,18)">
    <path d="M 1 2 L 1 4 M 3 1 L 3 4 M 5 0 L 5 4" stroke="#4CAF50" stroke-width="1" stroke-linecap="round"/>
  </g>
  
  <!-- Home Assistant house icon -->
  <g transform="translate(16,17)">
    <path d="M 3 2 L 0 5 L 1 5 L 1 7 L 5 7 L 5 5 L 6 5 L 3 2 Z" fill="#FF9800"/>
    <rect x="2" y="5" width="2" height="2" fill="#FFA726"/>
  </g>
</svg>